<?xml version="1.0" standalone="no"?>
<!DOCTYPE svg PUBLIC "-//W3C//DTD SVG 20010904//EN"
 "http://www.w3.org/TR/2001/REC-SVG-20010904/DTD/svg10.dtd">
<svg version="1.0" xmlns="http://www.w3.org/2000/svg"
 width="880.000000pt" height="643.000000pt" viewBox="0 0 880.000000 643.000000"
 preserveAspectRatio="xMidYMid meet">

<g transform="translate(0.000000,643.000000) scale(0.100000,-0.100000)"
fill="#000000" stroke="none">
<path d="M5066 6019 c-60 -4 -119 -12 -130 -17 -12 -5 -55 -17 -96 -27 -68
-16 -218 -71 -230 -85 -3 -3 -29 -16 -57 -29 -29 -14 -53 -28 -53 -32 0 -4 -9
-11 -21 -14 -31 -10 -173 -127 -243 -201 -34 -35 -83 -93 -109 -129 l-48 -66
-52 8 c-79 12 -333 8 -417 -7 -110 -18 -239 -63 -362 -125 -60 -30 -114 -59
-121 -65 -6 -5 -39 -30 -72 -54 -74 -54 -203 -181 -256 -251 l-40 -53 -167 -1
c-92 0 -192 -4 -222 -10 -73 -13 -216 -53 -271 -77 -97 -41 -259 -132 -284
-159 -5 -6 -35 -30 -65 -52 -57 -43 -141 -132 -206 -218 -21 -27 -42 -51 -46
-53 -4 -2 -8 -8 -8 -14 0 -6 -13 -29 -28 -52 -15 -22 -36 -61 -46 -86 -10 -25
-21 -49 -26 -55 -11 -14 -66 -181 -79 -240 -6 -27 -16 -97 -22 -155 -6 -57
-12 -107 -15 -111 -11 -18 43 -364 65 -414 10 -22 23 -61 30 -87 8 -27 17 -48
21 -48 4 0 15 -21 25 -47 10 -27 23 -55 30 -63 7 -8 20 -30 30 -49 10 -19 38
-62 64 -95 49 -65 226 -246 239 -246 5 0 17 -8 28 -18 38 -35 131 -91 219
-132 50 -22 97 -45 105 -49 8 -4 47 -16 85 -25 39 -9 79 -21 90 -26 51 -24
226 -30 897 -30 l708 0 0 160 0 160 -711 0 -710 0 -112 26 c-97 22 -207 62
-257 94 -8 5 -32 18 -52 29 -37 20 -48 28 -122 91 -274 232 -401 614 -321 965
25 112 101 293 127 303 4 2 8 8 8 14 0 15 99 135 151 185 158 149 357 239 587
265 86 10 183 2 322 -26 41 -8 80 -15 87 -15 10 -1 33 31 76 109 43 77 84 129
162 205 95 93 106 101 160 136 115 73 268 130 404 150 109 15 286 6 366 -19
75 -24 165 -45 169 -41 2 2 31 54 64 114 70 127 84 145 172 238 95 101 195
167 350 236 53 23 172 49 284 62 133 15 325 -18 461 -78 70 -32 104 -51 213
-125 40 -27 171 -164 208 -218 42 -61 104 -182 104 -204 0 -8 4 -17 10 -21 5
-3 14 -22 20 -43 16 -57 50 -309 50 -374 0 -64 -10 -57 105 -78 158 -29 274
-64 365 -109 634 -315 741 -1169 204 -1631 -70 -59 -82 -69 -121 -90 -21 -11
-45 -25 -53 -30 -47 -31 -163 -74 -259 -95 l-110 -25 -700 0 -701 0 0 -160 0
-160 698 0 c661 0 836 6 887 30 11 5 52 17 90 26 39 9 75 20 80 24 6 3 26 13
45 20 86 32 179 85 314 180 28 20 185 178 214 215 12 17 33 44 46 60 13 17 31
46 41 65 9 19 23 42 30 50 6 8 18 31 25 50 7 19 19 42 26 50 6 8 19 38 27 65
8 28 22 66 30 85 14 33 33 141 56 318 7 57 5 105 -10 220 -21 160 -25 180 -63
291 -37 106 -87 202 -180 342 -34 51 -192 212 -251 255 -96 70 -143 99 -219
134 -130 61 -147 67 -224 86 -85 20 -80 12 -112 169 -12 61 -30 128 -40 150
-10 22 -21 51 -25 65 -18 59 -79 168 -165 294 -51 75 -181 204 -271 269 -26
19 -109 71 -161 102 -65 38 -236 100 -303 110 -25 4 -47 11 -50 15 -3 5 -44
11 -93 14 -48 4 -107 8 -132 10 -25 2 -94 0 -154 -5z"/>
<path d="M4237 3333 c-4 -3 -7 -524 -7 -1157 l0 -1151 -388 388 -387 387 -115
-115 -115 -115 588 -587 587 -587 587 587 587 587 -114 115 -115 115 -387
-387 c-349 -349 -387 -384 -393 -362 -3 13 -4 534 -3 1157 l3 1132 -161 0
c-88 0 -164 -3 -167 -7z"/>
</g>
</svg>
