<svg width="48" height="48" viewBox="0 0 48 48" fill="none" xmlns="http://www.w3.org/2000/svg">
<path d="M0 24C0 10.7452 10.7452 0 24 0C37.2548 0 48 10.7452 48 24C48 37.2548 37.2548 48 24 48C10.7452 48 0 37.2548 0 24Z" fill="#F7F8FB"/>
<path d="M24.0008 15C21.5566 15 21.2498 15.0107 20.2898 15.0544C19.3317 15.0983 18.6777 15.2499 18.1054 15.4725C17.5135 15.7024 17.0113 16.0099 16.5111 16.5103C16.0104 17.0106 15.7029 17.5127 15.4723 18.1044C15.2492 18.6769 15.0973 19.3311 15.0542 20.2888C15.0113 21.2488 15 21.5558 15 24C15 26.4443 15.0109 26.7501 15.0544 27.7101C15.0984 28.6682 15.2501 29.3222 15.4725 29.8944C15.7026 30.4864 16.0101 30.9885 16.5105 31.4887C17.0106 31.9894 17.5127 32.2976 18.1043 32.5275C18.6769 32.7501 19.3311 32.9017 20.2891 32.9456C21.2491 32.9893 21.5556 33 23.9997 33C26.4442 33 26.75 32.9893 27.71 32.9456C28.6681 32.9017 29.3229 32.7501 29.8955 32.5275C30.4873 32.2976 30.9887 31.9894 31.4887 31.4887C31.9894 30.9885 32.2969 30.4864 32.5275 29.8946C32.7487 29.3222 32.9006 28.668 32.9456 27.7102C32.9887 26.7502 33 26.4443 33 24C33 21.5558 32.9887 21.249 32.9456 20.289C32.9006 19.3309 32.7487 18.6769 32.5275 18.1046C32.2969 17.5127 31.9894 17.0106 31.4887 16.5103C30.9881 16.0097 30.4875 15.7022 29.895 15.4725C29.3212 15.2499 28.6668 15.0983 27.7087 15.0544C26.7487 15.0107 26.4431 15 23.998 15H24.0008Z" fill="#838EAB"/>
<path fill-rule="evenodd" clip-rule="evenodd" d="M23.1072 16.6048C23.2623 16.6045 23.4292 16.6046 23.6093 16.6047L23.9061 16.6048C26.2838 16.6048 26.5657 16.6133 27.5046 16.656C28.3729 16.6957 28.8442 16.8408 29.1581 16.9627C29.5737 17.1241 29.87 17.317 30.1815 17.6287C30.4932 17.9404 30.6861 18.2372 30.8479 18.6528C30.9698 18.9664 31.1151 19.4376 31.1546 20.3059C31.1973 21.2447 31.2065 21.5267 31.2065 23.9033C31.2065 26.2799 31.1973 26.5619 31.1546 27.5007C31.1149 28.369 30.9698 28.8402 30.8479 29.1537C30.6865 29.5693 30.4932 29.8652 30.1815 30.1767C29.8698 30.4884 29.5739 30.6814 29.1581 30.8428C28.8445 30.9652 28.3729 31.11 27.5046 31.1497C26.5659 31.1923 26.2838 31.2016 23.9061 31.2016C21.5281 31.2016 21.2463 31.1923 20.3075 31.1497C19.4393 31.1096 18.968 30.9645 18.6539 30.8426C18.2383 30.6812 17.9415 30.4882 17.6298 30.1766C17.3181 29.8649 17.1251 29.5688 16.9634 29.153C16.8415 28.8395 16.6962 28.3682 16.6567 27.4999C16.614 26.5612 16.6055 26.2792 16.6055 23.9011C16.6055 21.5229 16.614 21.2424 16.6567 20.3037C16.6964 19.4354 16.8415 18.9641 16.9634 18.6502C17.1248 18.2346 17.3181 17.9378 17.6298 17.6261C17.9415 17.3144 18.2383 17.1215 18.6539 16.9597C18.9678 16.8372 19.4393 16.6925 20.3075 16.6526C21.1291 16.6155 21.4474 16.6044 23.1072 16.6025V16.6048ZM28.6595 18.0834C28.0695 18.0834 27.5909 18.5615 27.5909 19.1517C27.5909 19.7417 28.0695 20.2203 28.6595 20.2203C29.2495 20.2203 29.7282 19.7417 29.7282 19.1517C29.7282 18.5617 29.2495 18.083 28.6595 18.083V18.0834ZM19.3329 23.9053C19.3329 21.3797 21.3805 19.3321 23.906 19.332C26.4316 19.332 28.4788 21.3797 28.4788 23.9053C28.4788 26.4309 26.4318 28.4776 23.9062 28.4776C21.3806 28.4776 19.3329 26.4309 19.3329 23.9053Z" fill="#F7F8FB"/>
<path d="M24 21C25.6568 21 27 22.3431 27 24C27 25.6568 25.6568 27 24 27C22.3431 27 21 25.6568 21 24C21 22.3431 22.3431 21 24 21V21Z" fill="#F7F8FB"/>
</svg>
