<svg width="48" height="48" viewBox="0 0 48 48" fill="none" xmlns="http://www.w3.org/2000/svg">
<path d="M0 24C0 10.7452 10.7452 0 24 0C37.2548 0 48 10.7452 48 24C48 37.2548 37.2548 48 24 48C10.7452 48 0 37.2548 0 24Z" fill="#F7F8FB"/>
<path d="M21 21H17V32H21V21Z" fill="#838EAB"/>
<path d="M21 17.9993C20.9769 16.8644 20.2279 16 19.0115 16C17.7952 16 17 16.8644 17 17.9993C17 19.1107 17.7717 20 18.9654 20H18.9881C20.2279 20 21 19.1107 21 17.9993Z" fill="#838EAB"/>
<path d="M34 25.8375C34 22.5364 32.2224 21 29.8514 21C27.9383 21 27.0818 22.0431 26.6036 22.7749V21.2527H23C23.0475 22.2611 23 32 23 32H26.6036V25.9978C26.6036 25.6766 26.627 25.3562 26.7223 25.1262C26.9827 24.4845 27.5756 23.8201 28.5711 23.8201C29.8754 23.8201 30.3968 24.8056 30.3968 26.2499V31.9997H33.9999L34 25.8375Z" fill="#838EAB"/>
</svg>
